<?xml version="1.0" encoding="UTF-8" standalone="no"?>
<!-- Created with Inkscape (http://www.inkscape.org/) -->

<svg
   width="64pt"
   height="64pt"
   viewBox="0 0 22.577778 22.577778"
   version="1.1"
   id="svg831"
   inkscape:version="1.1.2 (b8e25be833, 2022-02-05)"
   sodipodi:docname="Export - Unblash - 64px.svg.2022_11_25_22_15_20.0.svg"
   inkscape:export-filename="E:\Icon Design\TR Icon Design Project\Carlos - Icon Design Project\November\Asli Siap\Filedline\02 - Construction Building.png"
   inkscape:export-xdpi="576"
   inkscape:export-ydpi="576"
   xmlns:inkscape="http://www.inkscape.org/namespaces/inkscape"
   xmlns:sodipodi="http://sodipodi.sourceforge.net/DTD/sodipodi-0.dtd"
   xmlns="http://www.w3.org/2000/svg"
   xmlns:svg="http://www.w3.org/2000/svg"
   xmlns:rdf="http://www.w3.org/1999/02/22-rdf-syntax-ns#"
   xmlns:cc="http://creativecommons.org/ns#"
   xmlns:dc="http://purl.org/dc/elements/1.1/">
  <defs
     id="defs825">
    <pattern
       id="EMFhbasepattern"
       patternUnits="userSpaceOnUse"
       width="6"
       height="6"
       x="0"
       y="0" />
    <pattern
       id="EMFhbasepattern-9"
       patternUnits="userSpaceOnUse"
       width="6"
       height="6"
       x="0"
       y="0" />
    <pattern
       id="EMFhbasepattern-0"
       patternUnits="userSpaceOnUse"
       width="6"
       height="6"
       x="0"
       y="0" />
    <pattern
       id="EMFhbasepattern-7"
       patternUnits="userSpaceOnUse"
       width="6"
       height="6"
       x="0"
       y="0" />
    <pattern
       id="EMFhbasepattern-2"
       patternUnits="userSpaceOnUse"
       width="6"
       height="6"
       x="0"
       y="0" />
    <pattern
       id="EMFhbasepattern-98"
       patternUnits="userSpaceOnUse"
       width="6"
       height="6"
       x="0"
       y="0" />
    <pattern
       id="EMFhbasepattern-6"
       patternUnits="userSpaceOnUse"
       width="6"
       height="6"
       x="0"
       y="0" />
    <pattern
       id="EMFhbasepattern-01"
       patternUnits="userSpaceOnUse"
       width="6"
       height="6"
       x="0"
       y="0" />
    <pattern
       id="EMFhbasepattern-07"
       patternUnits="userSpaceOnUse"
       width="6"
       height="6"
       x="0"
       y="0" />
    <pattern
       id="EMFhbasepattern-8"
       patternUnits="userSpaceOnUse"
       width="6"
       height="6"
       x="0"
       y="0" />
    <pattern
       id="EMFhbasepattern-4"
       patternUnits="userSpaceOnUse"
       width="6"
       height="6"
       x="0"
       y="0" />
    <pattern
       id="EMFhbasepattern-40"
       patternUnits="userSpaceOnUse"
       width="6"
       height="6"
       x="0"
       y="0" />
    <pattern
       id="EMFhbasepattern-08"
       patternUnits="userSpaceOnUse"
       width="6"
       height="6"
       x="0"
       y="0" />
    <pattern
       id="EMFhbasepattern-04"
       patternUnits="userSpaceOnUse"
       width="6"
       height="6"
       x="0"
       y="0" />
    <pattern
       id="EMFhbasepattern-014"
       patternUnits="userSpaceOnUse"
       width="6"
       height="6"
       x="0"
       y="0" />
    <pattern
       id="EMFhbasepattern-27"
       patternUnits="userSpaceOnUse"
       width="6"
       height="6"
       x="0"
       y="0" />
    <pattern
       id="EMFhbasepattern-09"
       patternUnits="userSpaceOnUse"
       width="6"
       height="6"
       x="0"
       y="0" />
    <pattern
       id="EMFhbasepattern-5"
       patternUnits="userSpaceOnUse"
       width="6"
       height="6"
       x="0"
       y="0" />
    <pattern
       id="EMFhbasepattern-018"
       patternUnits="userSpaceOnUse"
       width="6"
       height="6"
       x="0"
       y="0" />
    <pattern
       id="EMFhbasepattern-3"
       patternUnits="userSpaceOnUse"
       width="6"
       height="6"
       x="0"
       y="0" />
  </defs>
  <sodipodi:namedview
     id="base"
     pagecolor="#ffffff"
     bordercolor="#666666"
     borderopacity="1.0"
     inkscape:pageopacity="0.0"
     inkscape:pageshadow="2"
     inkscape:zoom="5.3085938"
     inkscape:cx="42.666667"
     inkscape:cy="42.57248"
     inkscape:document-units="pt"
     inkscape:current-layer="layer1"
     showgrid="false"
     units="pt"
     inkscape:window-width="958"
     inkscape:window-height="1041"
     inkscape:window-x="0"
     inkscape:window-y="0"
     inkscape:window-maximized="0"
     inkscape:pagecheckerboard="true"
     inkscape:showpageshadow="false"
     inkscape:object-paths="true"
     inkscape:snap-intersection-paths="true"
     inkscape:snap-smooth-nodes="true"
     inkscape:snap-midpoints="true"
     showguides="true"
     inkscape:snap-bbox="true"
     inkscape:bbox-nodes="true"
     inkscape:snap-nodes="false"
     inkscape:snap-global="true"
     inkscape:snap-others="false">
    <inkscape:grid
       type="xygrid"
       id="grid1378" />
    <sodipodi:guide
       position="0.97013831,21.607643"
       orientation="78.000048,0"
       id="guide1380"
       inkscape:locked="false" />
    <sodipodi:guide
       position="0.97013831,0.97013129"
       orientation="0,78.000005"
       id="guide1382"
       inkscape:locked="false" />
    <sodipodi:guide
       position="21.607639,0.97013129"
       orientation="-78.000048,0"
       id="guide1384"
       inkscape:locked="false" />
    <sodipodi:guide
       position="21.607639,21.607643"
       orientation="0,-78.000005"
       id="guide1386"
       inkscape:locked="false" />
  </sodipodi:namedview>
  <metadata
     id="metadata828">
    <rdf:RDF>
      <cc:Work
         rdf:about="">
        <dc:format>image/svg+xml</dc:format>
        <dc:type
           rdf:resource="http://purl.org/dc/dcmitype/StillImage" />
      </cc:Work>
    </rdf:RDF>
  </metadata>
  <g
     inkscape:label="Icon"
     inkscape:groupmode="layer"
     id="layer1"
     transform="translate(0,-274.42223)">
    <g
       id="g98576"
       style="display:inline;stroke-width:0.794884"
       transform="matrix(1.2580454,0,0,1.2580454,0.63852136,-38.902835)">
      <path
         style="color:#000000;fill:#fec872;stroke-width:0.794884;stroke-linecap:round;stroke-linejoin:round;-inkscape-stroke:none"
         d="m 2.9097561,266.23261 h 7.6738279 c 0.146173,-5.2e-4 0.264236,-0.11946 0.263672,-0.26563 v -2.11523 c 5.64e-4,-0.14617 -0.117499,-0.26511 -0.263672,-0.26563 H 3.003031 l -0.089144,0.1509 z"
         id="path149324"
         sodipodi:nodetypes="cccccccc" />
      <path
         style="color:#000000;fill:#dc1c4b;stroke-width:0.794884;stroke-linecap:round;stroke-linejoin:round;-inkscape-stroke:none"
         d="m 10.317956,266.23261 h 1.587891 c 0.435245,0 0.792969,-0.35968 0.792969,-0.79493 v -1.05859 c 0,-0.43524 -0.357724,-0.79297 -0.792969,-0.79297 h -1.322266 c -0.146936,-5.6e-4 -0.266193,0.11869 -0.265625,0.26563 z"
         id="path149340"
         sodipodi:nodetypes="cssssccc" />
      <path
         style="color:#000000;fill:#000000;stroke-width:0.794884;stroke-linecap:round;stroke-linejoin:round;-inkscape-stroke:none"
         d="m 3.972253,253.73065 a 0.2645835,0.2645835 0 0 0 -0.265625,0.26368 l -0.00586,7.01171 a 0.2645835,0.2645835 0 0 0 0.2636719,0.26563 0.2645835,0.2645835 0 0 0 0.2656249,-0.26563 l 0.00586,-7.01171 A 0.2645835,0.2645835 0 0 0 3.972253,253.73065 Z"
         id="path5116" />
      <path
         style="color:#000000;fill:#5aabdd;stroke-width:0.794884;stroke-linecap:round;stroke-linejoin:round;-inkscape-stroke:none"
         d="m 2.2613155,252.58222 c 0.8043033,0 1.4453133,0.63195 1.4453125,1.41211 a 0.26460996,0.26460996 0 0 0 0.265625,0.26562 h 9.207032 l 1.449218,1.53125 a 0.26460996,0.26460996 0 0 0 0.279297,0.0664 l 1.230469,-0.42774 v 7.36328 c 1.8e-5,0.78298 -0.629098,1.41211 -1.412109,1.41211 -0.783011,0 -1.412111,-0.62912 -1.41211,-1.41211 a 0.26460996,0.26460996 0 0 0 -0.263672,-0.26562 H 2.2456905 c -0.7850311,0 -1.42968483,-0.62386 -1.42968754,-1.4668 v -7.0664 c 2.65e-6,-0.78016 0.64100924,-1.41211 1.44531254,-1.41211 z"
         id="path149614" />
      <path
         id="path149408"
         style="color:#000000;fill:#fec872;stroke-width:0.794884;stroke-linecap:round;stroke-linejoin:round;-inkscape-stroke:none"
         d="m 9.5189126,249.82834 c -0.4242424,-1e-5 -0.7646773,0.26641 -0.9043376,0.60358 -0.1396603,0.33716 -0.087079,0.76456 0.2129068,1.06454 l 6.1722332,6.17171 c 0.299983,0.29998 0.727375,0.35257 1.064535,0.21291 0.33716,-0.13965 0.60306,-0.47803 0.603064,-0.90227 v -6.19756 c 2e-6,-0.52325 -0.429652,-0.95291 -0.952914,-0.95291 z m 3.0468424,2.24999 h 1.851567 v 1.85157 z" />
      <path
         style="color:#000000;fill:#87d1ee;stroke-width:0.794884;stroke-linecap:round;stroke-linejoin:round;-inkscape-stroke:none"
         d="m 2.2613155,252.05292 c -1.0846822,0 -1.97460571,0.86956 -1.97460941,1.94141 v 7.09375 a 0.26464844,0.26464844 0 0 0 0.52929687,0 c 9.2e-7,-0.7484 0.64101304,-1.38477 1.44531254,-1.38477 0.8042995,0 1.4453133,0.63195 1.4453125,1.41211 a 0.26464844,0.26464844 0 0 0 0.5292968,0 v -7.12109 c 1.2e-6,-1.07185 -0.8899272,-1.94141 -1.9746093,-1.94141 z"
         id="path149484" />
      <path
         id="path151701"
         style="color:#000000;fill:#ebc8b6;stroke-width:0.794884;stroke-linecap:round;stroke-linejoin:round;-inkscape-stroke:none"
         d="m 2.4511266,263.76599 -2.02985027,0.90227 c -0.20734471,0.0938 -0.20734471,0.38831 0,0.48215 l 2.02933357,0.90226 0.6133992,-0.61494 -0.3415812,-0.34159 c -0.1025987,-0.1032 -0.1025987,-0.26989 0,-0.3731 l 0.3415812,-0.34416 z"
         sodipodi:nodetypes="ccccccccc" />
      <path
         id="rect718"
         style="color:#000000;display:inline;fill:#000000;stroke-width:0.794884;stroke-linecap:round;stroke-linejoin:round;-inkscape-stroke:none"
         d="m 9.5193159,249.82819 c -0.4242424,0 -0.7646773,0.26643 -0.9043376,0.60359 -0.1396603,0.33716 -0.087079,0.76609 0.2129068,1.06608 l 6.1722329,6.17223 c 0.299983,0.29998 0.727375,0.3505 1.064535,0.21084 0.33716,-0.13966 0.603061,-0.47804 0.603064,-0.90227 7.5e-5,-1.99616 0,-4.12659 0,-6.19756 2e-6,-0.52325 -0.429652,-0.95291 -0.952914,-0.95291 -2.065162,2e-5 -4.130325,-2e-5 -6.1954871,0 z m 0.0062,0.52917 v 0.0801 c 5.556e-4,0.14532 0.1182298,0.26298 0.2635498,0.26355 0.1461265,5.3e-4 0.2650483,-0.11742 0.2656163,-0.26355 v -0.0801 h 0.529167 v 0.0801 c 5.56e-4,0.14532 0.11823,0.26298 0.26355,0.26355 0.146328,7.9e-4 0.265565,-0.11722 0.266134,-0.26355 v -0.0801 h 0.529166 v 0.42375 c -5.82e-4,0.14612 0.117424,0.26505 0.26355,0.26562 0.146126,-5.3e-4 0.264123,-0.1195 0.26355,-0.26562 v -0.42375 h 0.529167 v 0.0801 c 5.55e-4,0.14633 0.119805,0.26441 0.266133,0.26355 0.14532,-5.3e-4 0.262985,-0.11823 0.26355,-0.26355 v -0.0801 h 0.529167 v 0.0801 c 5.55e-4,0.14613 0.11949,0.26412 0.265617,0.26355 0.14532,-5.3e-4 0.262984,-0.11823 0.263549,-0.26355 v -0.0801 h 0.529167 v 0.42375 c -5.82e-4,0.14713 0.118998,0.26648 0.266134,0.26562 0.146126,-5.3e-4 0.264122,-0.1195 0.26355,-0.26562 v -0.42375 h 0.368969 c 0.237278,0 0.423748,0.18647 0.423747,0.42375 v 0.36949 h -0.07803 c -0.146934,-5.3e-4 -0.266192,0.11868 -0.265617,0.26561 5.55e-4,0.14613 0.11949,0.26412 0.265617,0.26355 h 0.07803 v 0.52917 h -0.423747 c -0.146125,5.3e-4 -0.264121,0.11949 -0.263549,0.26561 5.55e-4,0.14532 0.118229,0.26299 0.263549,0.26356 h 0.423747 v 0.52968 h -0.07803 c -0.146935,-5.3e-4 -0.266193,0.11868 -0.265617,0.26562 5.82e-4,0.14612 0.119491,0.26412 0.265617,0.26355 h 0.07803 v 0.52916 h -0.07803 c -0.146934,-5.8e-4 -0.266192,0.11868 -0.265617,0.26562 5.82e-4,0.14612 0.119491,0.26412 0.265617,0.26355 h 0.07803 v 0.52968 h -0.423747 c -0.145319,5.6e-4 -0.262983,0.11823 -0.263549,0.26355 -5.83e-4,0.14613 0.117424,0.26505 0.263549,0.26562 h 0.423747 v 0.52917 h -0.07803 c -0.146126,-5.9e-4 -0.265048,0.11742 -0.265617,0.26355 -5.82e-4,0.14693 0.118683,0.26619 0.265617,0.26561 h 0.07803 c 0,0.47258 -0.542789,0.54345 -0.763778,0.32246 l -6.1737838,-6.17171 c -0.3657939,-0.3658 -0.024596,-0.76585 0.3245287,-0.76585 z m 2.4024361,1.19166 c -0.236106,5.3e-4 -0.353334,0.2866 -0.185518,0.45268 l 2.753837,2.75436 c 0.166896,0.16586 0.451046,0.0477 0.451136,-0.18759 v -2.75383 c 5.55e-4,-0.14632 -0.117746,-0.26532 -0.264067,-0.26562 z M 0.28732097,253.9959 c 1.204e-5,2.36722 0,4.76392 0,7.12153 -1.22e-6,1.05919 0.86906723,1.91824 1.93864143,1.9389 l 10.5794576,5.3e-4 c 0.129175,0.94505 0.941786,1.67741 1.92133,1.67741 1.068996,0 1.940969,-0.8725 1.940967,-1.94148 v -4.29844 c 5.82e-4,-0.14613 -0.117424,-0.26505 -0.26355,-0.26562 -0.146934,-5.8e-4 -0.266192,0.11868 -0.265617,0.26562 v 4.29844 c 2e-6,0.78299 -0.628789,1.41232 -1.4118,1.41232 -0.692819,0 -1.265375,-0.4924 -1.388029,-1.14825 h 1.539958 c 0.146327,5.8e-4 0.265332,-0.11774 0.265617,-0.26407 -5.83e-4,-0.14612 -0.119492,-0.26412 -0.265617,-0.26355 H 2.2618775 c -0.8042995,0 -1.44539075,-0.63165 -1.44538985,-1.4118 -9e-7,-0.78017 0.64109035,-1.41232 1.44538985,-1.41232 0.8811056,0 1.4453984,0.63096 1.4453984,1.41232 5.821e-4,0.14613 0.1194911,0.26412 0.2656168,0.26355 0.1453192,-5.5e-4 0.2629834,-0.11823 0.2635499,-0.26355 -0.012089,-2.27125 -0.00212,-4.57519 0,-6.85746 h 6.0817994 c 0.146327,5.8e-4 0.265332,-0.11774 0.265617,-0.26407 5.82e-4,-0.14693 -0.118683,-0.26619 -0.265617,-0.26561 H 4.2178304 c -0.1321099,-0.94277 -0.9564486,-1.67003 -1.9505214,-1.67534 -1.0901137,-1e-5 -1.97998925,0.8691 -1.97998803,1.94095 z M 12.566158,252.07819 h 1.851567 v 1.85157 z m -8.8588906,1.91771 -0.00517,5.79603 c -0.3611867,-0.37894 -0.8740444,-0.61598 -1.4402223,-0.61598 -0.5687517,0 -1.0839509,0.23919 -1.44538988,0.62115 v -5.8012 c -9e-7,-0.78016 0.64108658,-1.4118 1.44538978,-1.4118 0.8043032,0 1.4453905,0.63164 1.4453897,1.4118 z M 1.3224,254.06256 c 5.689e-4,0.14613 0.1194911,0.26413 0.2656169,0.26355 0.1453192,-5.5e-4 0.2629832,-0.11823 0.2635498,-0.26355 0,-0.21819 0.1677784,-0.39067 0.3963583,-0.39067 0.1142872,0 0.2119745,0.0446 0.2831868,0.11524 0.1040108,0.10342 0.2723058,0.10249 0.3751708,-0.002 0.1020435,-0.10377 0.1011198,-0.27048 -0.00206,-0.37311 -0.1673503,-0.16603 -0.4019125,-0.26923 -0.6562922,-0.26923 -0.5087533,-1e-5 -0.9255267,0.41566 -0.9255267,0.91983 z m 3.7052002,0.52917 c -0.1463273,-8.5e-4 -0.2655644,0.11722 -0.2661335,0.26355 -0.1455201,5.6e-4 -0.2632668,0.11855 -0.2635499,0.26407 -5.821e-4,0.14612 0.1174242,0.26504 0.2635499,0.26561 v 6.08594 c -0.1453193,5.5e-4 -0.2629834,0.11823 -0.2635499,0.26355 -5.821e-4,0.14612 0.1174242,0.26505 0.2635499,0.26561 5.82e-4,0.14633 0.1198062,0.26441 0.2661335,0.26355 0.1453192,-5.5e-4 0.2629834,-0.11823 0.2635499,-0.26355 h 9.7911339 c 5.55e-4,0.14532 0.11823,0.26299 0.26355,0.26355 0.146125,5.9e-4 0.265047,-0.11742 0.265617,-0.26355 0.146125,-5.8e-4 0.264121,-0.11949 0.263549,-0.26561 -5.55e-4,-0.14532 -0.11823,-0.26299 -0.263549,-0.26355 5.82e-4,-0.14694 -0.118684,-0.26619 -0.265617,-0.26562 -0.146126,5.8e-4 -0.264122,0.11949 -0.26355,0.26562 H 5.2911501 v -6.08594 c 0.1469337,5.9e-4 0.2661917,-0.11868 0.2656168,-0.26561 -2.911e-4,-0.14633 -0.1192898,-0.26464 -0.2656168,-0.26407 -5.557e-4,-0.14532 -0.1182307,-0.26298 -0.2635499,-0.26355 z m -3.4395833,0.26355 c -0.146327,-5.8e-4 -0.2653321,0.11774 -0.2656169,0.26407 v 3.17551 c -5.741e-4,0.14694 0.1186832,0.2662 0.2656169,0.26562 0.1461257,-5.8e-4 0.2641216,-0.11949 0.2635498,-0.26562 v -3.17551 c -2.831e-4,-0.14552 -0.1180297,-0.2635 -0.2635498,-0.26407 z m 4.7614665,0.26407 c -0.2891189,0 -0.5291629,0.24004 -0.5291667,0.52916 v 4.76354 c -7.4e-6,0.28912 0.2400475,0.52916 0.5291667,0.52916 H 12.1698 c 0.146934,5.9e-4 0.266192,-0.11868 0.265617,-0.26561 -5.82e-4,-0.14613 -0.119491,-0.26412 -0.265617,-0.26355 H 8.9963503 v -0.79479 c -5.821e-4,-0.14632 -0.1198063,-0.2644 -0.2661335,-0.26355 -0.1453193,5.6e-4 -0.2629834,0.11824 -0.2635499,0.26355 v 0.79479 H 7.6739503 v -0.86145 c 8e-6,-0.28912 -0.2400474,-0.5271 -0.5291667,-0.5271 H 6.3494834 v -0.72864 h 2.1171835 v 0.26562 c 5.556e-4,0.14532 0.1182306,0.26298 0.2635499,0.26355 0.1463272,8.5e-4 0.2655644,-0.11722 0.2661335,-0.26355 v -1.05833 c 5.821e-4,-0.14714 -0.1189982,-0.26648 -0.2661335,-0.26562 -0.1461257,5.8e-4 -0.2641217,0.11949 -0.2635499,0.26562 v 0.26355 H 6.3494834 v -0.72657 h 0.7953002 c 0.2891193,0 0.5291747,-0.24005 0.5291667,-0.52917 v -0.86145 h 0.7927166 v 0.79479 c 5.556e-4,0.14532 0.1182306,0.26298 0.2635499,0.26355 0.1463272,8.4e-4 0.2655644,-0.11722 0.2661335,-0.26355 v -0.79479 H 9.525517 v 2.11719 c 0,0.28912 0.2400472,0.52916 0.529167,0.52916 h 2.115116 1.324467 v 2.11719 H 13.22865 c -0.145319,5.5e-4 -0.262983,0.11823 -0.26355,0.26355 -5.82e-4,0.14612 0.117425,0.26504 0.26355,0.26561 h 0.265617 c 0.289119,0 0.529166,-0.24004 0.529167,-0.52916 v -2.11719 c 0,-0.28911 -0.240048,-0.52915 -0.529167,-0.52916 h -1.05885 c 5.8e-5,-0.70638 0,-1.41102 0,-2.11719 0,-0.28912 -0.240048,-0.52916 -0.529167,-0.52916 -1.852255,0 -3.7045109,0 -5.5567666,0 z m 0,0.52916 h 0.7953002 v 0.86145 H 6.3494834 Z m 3.7052006,0 h 0.529166 v 0.79479 c -8e-6,0.28912 0.240565,0.52916 0.529684,0.52916 h 0.792716 v 0.79324 h -1.851566 z m 1.05885,0 h 0.792716 v 0.79479 h -0.792716 z m -4.7640506,3.90209 h 0.7953002 v 0.86145 H 6.3494834 Z m -5.058606,1.54927 c 0.045237,0.45237 0.4504466,0.90021 1.089856,0.90021 h 0.7953001 c 0.1461257,-5.9e-4 0.2641217,-0.1195 0.2635499,-0.26562 -5.556e-4,-0.14532 -0.1182306,-0.26298 -0.2635499,-0.26355 H 2.3807333 c -0.4189228,0 -0.5413309,-0.21517 -0.5622396,-0.42426 -0.013474,-0.13244 -0.1232432,-0.23424 -0.2736267,-0.23694 -0.1625148,0.0154 -0.2684117,0.14493 -0.2539896,0.29016 z m 1.4965499,2.51613 -2.36574699,1.05213 c -0.21042697,0.0928 -0.21042697,0.39139 0,0.48421 l 2.36677889,1.05058 c 0.0325,0.0188 0.079286,0.0292 0.1196398,0.0292 l 8.998159,2.7e-4 c 0.435245,0 0.792716,-0.35747 0.792716,-0.79272 v -1.05885 c 0,-0.43525 -0.357471,-0.79479 -0.792716,-0.79479 -2.999389,1e-5 -5.9987777,1.5e-4 -8.9981664,2.5e-4 -0.046835,0 -0.087925,0.0146 -0.1206643,0.0297 z m 0.8397415,0.57721 -0.078032,-0.078 h 5.7107629 v 1.58802 H 3.5491373 l 0.081132,-0.0814 c 0.099626,-0.10739 0.09689,-0.26904 -0.0031,-0.36975 l -0.3420978,-0.34209 0.3454567,-0.3452 c 0.1007427,-0.108 0.09777,-0.27081 -0.00336,-0.37156 z m 6.161898,-0.078 h 0.5291672 v 1.58802 H 9.7890668 Z m 1.0583332,0 h 1.05885 c 0.14926,0 0.26355,0.11635 0.26355,0.26562 v 1.05885 c 0,0.14926 -0.11429,0.26355 -0.26355,0.26355 H 10.8474 Z m -7.9958943,0.0527 0.2129067,0.21291 -0.341581,0.3421 c -0.1036444,0.10338 -0.1036444,0.27127 0,0.37465 l 0.3420978,0.34158 -0.2134235,0.21342 -1.6696656,-0.74259 z M 4.2323,264.64435 c -0.1461257,5.8e-4 -0.2641217,0.11949 -0.2635499,0.26561 2.91e-4,0.14553 0.1180298,0.2635 0.2635499,0.26407 h 0.2656168 c 0.14552,-5.5e-4 0.2632668,-0.11854 0.2635499,-0.26407 5.82e-4,-0.14612 -0.1174242,-0.26504 -0.2635499,-0.26561 z m 1.3244669,0 c -0.1469337,-5.8e-4 -0.2661918,0.11868 -0.2656168,0.26561 2.91e-4,0.14633 0.1192897,0.26464 0.2656168,0.26407 h 2.9099 c 0.14552,-5.5e-4 0.2632668,-0.11854 0.2635499,-0.26407 5.82e-4,-0.14612 -0.1174242,-0.26504 -0.2635499,-0.26561 z"
         sodipodi:nodetypes="csccsccccccscccccccccccccccccccscccccccssccsccccsccccsccccsccccsccccsccccccccccccscccsccsccsccccssccsccccccccsccsccccscccccccscccccsccccscscsccccccscccccsscccccscccccccsccccccccccccsccccccccssccccscscsccccsccccccccccccccccccccccscccscscccccscscccccccccscccccccccsccssccccccccccccccccccccccccccccccc" />
    </g>
  </g>
</svg>
